<?xml version="1.0" encoding="utf-8"?>

<!DOCTYPE svg PUBLIC "-//W3C//DTD SVG 1.1//EN" "http://www.w3.org/Graphics/SVG/1.1/DTD/svg11.dtd">
<svg version="1.1" id="Layer_1" xmlns="http://www.w3.org/2000/svg" xmlns:xlink="http://www.w3.org/1999/xlink" x="0px" y="0px"
	 viewBox="0 0 1992.933 1633.949" enable-background="new 0 0 1992.933 1633.949" xml:space="preserve">
<g>
	<g>
		<polygon points="40.255,792.93 44.87,807.134 59.806,807.134 47.723,815.913 52.338,830.118 40.255,821.339 28.172,830.118 
			32.787,815.913 20.704,807.134 35.64,807.134 		"/>
		<polygon points="159.781,695.935 167.292,719.051 191.597,719.051 171.934,733.337 179.445,756.452 159.781,742.166 
			140.118,756.452 147.629,733.337 127.966,719.051 152.271,719.051 		"/>
		<polygon points="279.308,598.941 289.714,630.967 323.388,630.967 296.145,650.761 306.551,682.787 279.308,662.994 
			252.065,682.787 262.471,650.761 235.228,630.967 268.902,630.967 		"/>
		<polygon points="398.834,501.947 412.136,542.884 455.179,542.884 420.356,568.184 433.658,609.121 398.834,583.821 
			364.011,609.121 377.312,568.184 342.489,542.884 385.533,542.884 		"/>
		<polygon points="518.361,404.952 534.557,454.8 586.971,454.8 544.567,485.608 560.764,535.456 518.361,504.648 475.958,535.456 
			492.154,485.608 449.751,454.8 502.164,454.8 		"/>
		<polygon points="637.887,307.958 656.979,366.717 718.762,366.717 668.779,403.032 687.87,461.79 637.887,425.475 587.904,461.79 
			606.996,403.032 557.013,366.717 618.795,366.717 		"/>
		<polygon points="757.414,210.963 779.401,278.633 850.553,278.633 792.99,320.455 814.977,388.125 757.414,346.303 
			699.851,388.125 721.838,320.455 664.275,278.633 735.427,278.633 		"/>
		<polygon points="876.94,113.969 901.823,190.55 982.344,190.55 917.201,237.879 942.083,314.459 876.94,267.13 811.797,314.459 
			836.68,237.879 771.536,190.55 852.058,190.55 		"/>
		<polygon points="996.467,16.975 1024.245,102.466 1114.135,102.466 1041.412,155.302 1069.19,240.794 996.467,187.957 
			923.743,240.794 951.521,155.302 878.798,102.466 968.689,102.466 		"/>
		<polygon points="1115.993,113.969 1140.876,190.55 1221.397,190.55 1156.254,237.879 1181.136,314.459 1115.993,267.13 
			1050.85,314.459 1075.732,237.879 1010.589,190.55 1091.111,190.55 		"/>
		<polygon points="1235.52,210.963 1257.507,278.633 1328.659,278.633 1271.096,320.455 1293.083,388.125 1235.52,346.303 
			1177.956,388.125 1199.944,320.455 1142.38,278.633 1213.532,278.633 		"/>
		<polygon points="1355.046,307.958 1374.138,366.717 1435.921,366.717 1385.937,403.032 1405.029,461.79 1355.046,425.475 
			1305.063,461.79 1324.155,403.032 1274.172,366.717 1335.954,366.717 		"/>
		<polygon points="1474.573,404.952 1490.769,454.8 1543.182,454.8 1500.779,485.608 1516.976,535.456 1474.573,504.648 
			1432.169,535.456 1448.366,485.608 1405.963,454.8 1458.376,454.8 		"/>
		<polygon points="1594.099,501.947 1607.4,542.884 1650.444,542.884 1615.621,568.184 1628.922,609.121 1594.099,583.821 
			1559.276,609.121 1572.577,568.184 1537.754,542.884 1580.798,542.884 		"/>
		<polygon points="1713.625,598.941 1724.031,630.967 1757.706,630.967 1730.463,650.761 1740.869,682.787 1713.625,662.994 
			1686.382,682.787 1696.788,650.761 1669.545,630.967 1703.219,630.967 		"/>
		<polygon points="1833.152,695.935 1840.663,719.051 1864.968,719.051 1845.304,733.337 1852.815,756.452 1833.152,742.166 
			1813.489,756.452 1820.999,733.337 1801.336,719.051 1825.641,719.051 		"/>
		<polygon points="1952.678,792.93 1957.294,807.134 1972.229,807.134 1960.146,815.913 1964.762,830.118 1952.678,821.339 
			1940.595,830.118 1945.211,815.913 1933.127,807.134 1948.063,807.134 		"/>
	</g>
	<g>
		<polygon points="1833.152,938.014 1825.641,914.898 1801.336,914.898 1820.999,900.612 1813.489,877.497 1833.152,891.783 
			1852.815,877.497 1845.304,900.612 1864.968,914.898 1840.663,914.898 		"/>
		<polygon points="1713.625,1035.008 1703.219,1002.982 1669.545,1002.982 1696.788,983.189 1686.382,951.162 1713.625,970.956 
			1740.869,951.162 1730.463,983.189 1757.706,1002.982 1724.031,1002.982 		"/>
		<polygon points="1594.099,1132.003 1580.798,1091.066 1537.754,1091.066 1572.577,1065.765 1559.276,1024.828 1594.099,1050.128 
			1628.922,1024.828 1615.621,1065.765 1650.444,1091.066 1607.4,1091.066 		"/>
		<polygon points="1474.573,1228.997 1458.376,1179.149 1405.963,1179.149 1448.366,1148.341 1432.169,1098.493 1474.573,1129.301 
			1516.976,1098.493 1500.779,1148.341 1543.182,1179.149 1490.769,1179.149 		"/>
		<polygon points="1355.046,1325.991 1335.954,1267.233 1274.172,1267.233 1324.155,1230.918 1305.063,1172.159 1355.046,1208.474 
			1405.029,1172.159 1385.937,1230.918 1435.921,1267.233 1374.138,1267.233 		"/>
		<polygon points="1235.52,1422.986 1213.532,1355.316 1142.38,1355.316 1199.944,1313.494 1177.956,1245.824 1235.52,1287.647 
			1293.083,1245.824 1271.096,1313.494 1328.659,1355.316 1257.507,1355.316 		"/>
		<polygon points="1115.993,1519.98 1091.111,1443.4 1010.589,1443.4 1075.732,1396.07 1050.85,1319.49 1115.993,1366.819 
			1181.136,1319.49 1156.254,1396.07 1221.397,1443.4 1140.876,1443.4 		"/>
		<polygon points="996.467,1616.975 968.689,1531.483 878.798,1531.483 951.521,1478.647 923.743,1393.156 996.467,1445.992 
			1069.19,1393.156 1041.412,1478.647 1114.135,1531.483 1024.245,1531.483 		"/>
		<polygon points="876.94,1519.98 852.058,1443.4 771.536,1443.4 836.68,1396.07 811.797,1319.49 876.94,1366.819 942.083,1319.49 
			917.201,1396.07 982.344,1443.4 901.823,1443.4 		"/>
		<polygon points="757.414,1422.986 735.427,1355.316 664.275,1355.316 721.838,1313.494 699.851,1245.824 757.414,1287.647 
			814.977,1245.824 792.99,1313.494 850.553,1355.316 779.401,1355.316 		"/>
		<polygon points="637.887,1325.991 618.795,1267.233 557.013,1267.233 606.996,1230.918 587.904,1172.159 637.887,1208.474 
			687.87,1172.159 668.779,1230.918 718.762,1267.233 656.979,1267.233 		"/>
		<polygon points="518.361,1228.997 502.164,1179.149 449.751,1179.149 492.154,1148.341 475.958,1098.493 518.361,1129.301 
			560.764,1098.493 544.567,1148.341 586.971,1179.149 534.557,1179.149 		"/>
		<polygon points="398.834,1132.003 385.533,1091.066 342.489,1091.066 377.312,1065.765 364.011,1024.828 398.834,1050.128 
			433.658,1024.828 420.356,1065.765 455.179,1091.066 412.136,1091.066 		"/>
		<polygon points="279.308,1035.008 268.902,1002.982 235.228,1002.982 262.471,983.189 252.065,951.162 279.308,970.956 
			306.551,951.162 296.145,983.189 323.388,1002.982 289.714,1002.982 		"/>
		<polygon points="159.781,938.014 152.271,914.898 127.966,914.898 147.629,900.612 140.118,877.497 159.781,891.783 
			179.445,877.497 171.934,900.612 191.597,914.898 167.292,914.898 		"/>
	</g>
</g>
</svg>
